name C:\Users\u0101727\Documents\MyRepositories\upper-imu-dc\Results\main_tracking\Case_50\kinematics_filtered.mot
datacolumns 10
datarows 56
range 1.62000000 2.17000000
endheader 
time	clav_prot	clav_elev	scapula_abduction	scapula_elevation	scapula_upward_rot	scapula_winging	plane_elv	shoulder_elv	axial_rot	
          1.62000000	        -43.32666232	          7.25311190	        -24.25745344	         -3.58817893	         49.11735112	        -11.78207012	          2.62346615	         62.54191070	         -0.98309898	
          1.63000000	        -43.37364383	          7.29581071	        -24.15503587	         -3.58113989	         49.35936093	        -11.84974868	          2.62677957	         62.85499727	         -0.95898393	
          1.64000000	        -43.42148273	          7.33864389	        -24.05153152	         -3.57397063	         49.60439857	        -11.91790808	          2.62427590	         63.16989624	         -0.93809816	
          1.65000000	        -43.47008054	          7.38148349	        -23.94682965	         -3.56672983	         49.85235940	        -11.98642215	          2.61570236	         63.48648366	         -0.92068237	
          1.66000000	        -43.51932673	          7.42424246	        -23.84079438	         -3.55944948	         50.10316676	        -12.05517277	          2.60086988	         63.80460338	         -0.90690657	
          1.67000000	        -43.56909849	          7.46689008	        -23.73325808	         -3.55212533	         50.35678700	        -12.12405583	          2.57965641	         64.12406285	         -0.89688106	
          1.68000000	        -43.61926117	          7.50946263	        -23.62401814	         -3.54471025	         50.61323909	        -12.19298535	          2.55200949	         64.44463281	         -0.89066926	
          1.69000000	        -43.66966933	          7.55206794	        -23.51283755	         -3.53711119	         50.87259778	        -12.26189538	          2.51794781	         64.76605141	         -0.88830051	
          1.70000000	        -43.72016820	          7.59488348	        -23.39944916	         -3.52919014	         51.13498988	        -12.33073936	          2.47756183	         65.08803237	         -0.88978152	
          1.71000000	        -43.77059548	          7.63814808	        -23.28356309	         -3.52076910	         51.40058415	        -12.39948712	          2.43101299	         65.41027679	         -0.89510532	
          1.72000000	        -43.82078301	          7.68214810	        -23.16487637	         -3.51163837	         51.66957576	        -12.46811971	          2.37853138	         65.73248777	         -0.90425699	
          1.73000000	        -43.87055835	          7.72719946	        -23.04308369	         -3.50156765	         51.94216711	        -12.53662263	          2.32041168	         66.05438644	         -0.91721602	
          1.74000000	        -43.91974575	          7.77362714	        -22.91788818	         -3.49031874	         52.21854661	        -12.60497806	          2.25700712	         66.37572831	         -0.93395536	
          1.75000000	        -43.96816674	          7.82174392	        -22.78901132	         -3.47765884	         52.49886737	        -12.67315675	          2.18872200	         66.69631848	         -0.95443790	
          1.76000000	        -44.01564027	          7.87182991	        -22.65620132	         -3.46337359	         52.78322738	        -12.74111035	          2.11600285	         67.01602465	         -0.97861088	
          1.77000000	        -44.06198250	          7.92411415	        -22.51923965	         -3.44727891	         53.07165267	        -12.80876476	          2.03932906	         67.33478693	         -1.00639932	
          1.78000000	        -44.10700666	          7.97875927	        -22.37794535	         -3.42923111	         53.36408450	        -12.87601499	          1.95920356	         67.65262404	         -1.03769933	
          1.79000000	        -44.15052307	          8.03585002	        -22.23217720	         -3.40913485	         53.66037164	        -12.94272203	          1.87614422	         67.96963528	         -1.07237220	
          1.80000000	        -44.19233974	          8.09538603	        -22.08183387	         -3.38694846	         53.96026820	        -13.00871197	          1.79067665	         68.28599831	         -1.11024022	
          1.81000000	        -44.23226375	          8.15727927	        -21.92685218	         -3.36268661	         54.26343742	        -13.07377763	          1.70332853	         68.60196270	         -1.15108493	
          1.82000000	        -44.27010355	          8.22135633	        -21.76720403	         -3.33641989	         54.56946122	        -13.13768270	          1.61462578	         68.91783945	         -1.19464828	
          1.83000000	        -44.30567225	          8.28736547	        -21.60289217	         -3.30827149	         54.87785517	        -13.20016825	          1.52509036	         69.23398693	         -1.24063716	
          1.84000000	        -44.33879183	          8.35498825	        -21.43394554	         -3.27841090	         55.18808783	        -13.26096138	          1.43523928	         69.55079384	         -1.28873105	
          1.85000000	        -44.36929794	          8.42385525	        -21.26041437	         -3.24704488	         55.49960340	        -13.31978543	          1.34558445	         69.86865995	         -1.33859276	
          1.86000000	        -44.39704501	          8.49356497	        -21.08236555	         -3.21440615	         55.81184607	        -13.37637114	          1.25663263	         70.18797564	         -1.38988123	
          1.87000000	        -44.42191121	          8.56370515	        -20.89987845	         -3.18074032	         56.12428444	        -13.43046807	          1.16888496	         70.50910121	         -1.44226570	
          1.88000000	        -44.44380292	          8.63387499	        -20.71304159	         -3.14629188	         56.43643435	        -13.48185542	          1.08283570	         70.83234713	         -1.49543964	
          1.89000000	        -44.46265825	          8.70370667	        -20.52195044	         -3.11129029	         56.74787830	        -13.53035150	          0.99896989	         71.15795619	         -1.54913318	
          1.90000000	        -44.47844955	          8.77288457	        -20.32670663	         -3.07593730	         57.05827998	        -13.57582127	          0.91776017	         71.48608859	         -1.60312225	
          1.91000000	        -44.49118488	          8.84116009	        -20.12741877	         -3.04039676	         57.36739269	        -13.61818113	          0.83966290	         71.81681091	         -1.65723323	
          1.92000000	        -44.50090828	          8.90836060	        -19.92420487	         -3.00478815	         57.67506097	        -13.65740085	          0.76511422	         72.15008955	         -1.71134190	
          1.93000000	        -44.50769904	          8.97439118	        -19.71719609	         -2.96918460	         57.98121550	        -13.69350227	          0.69452645	         72.48578926	         -1.76536631	
          1.94000000	        -44.51167007	          9.03922876	        -19.50654108	         -2.93361588	         58.28586183	        -13.72655489	          0.62828503	         72.82367666	         -1.81925388	
          1.95000000	        -44.51296534	          9.10290870	        -19.29241038	         -2.89807633	         58.58906436	        -13.75666870	          0.56674633	         73.16342872	         -1.87296366	
          1.96000000	        -44.51175673	          9.16550519	        -19.07499993	         -2.86253700	         58.89092720	        -13.78398487	          0.51023628	         73.50464519	         -1.92644560	
          1.97000000	        -44.50824028	          9.22710723	        -18.85453342	         -2.82696083	         59.19157378	        -13.80866514	          0.45904964	         73.84686419	         -1.97961895	
          1.98000000	        -44.50263234	          9.28779271	        -18.63126310	         -2.79131918	         59.49112715	        -13.83088092	          0.41344999	         74.18957925	         -2.03235232	
          1.99000000	        -44.49516575	          9.34760354	        -18.40546942	         -2.75560795	         59.78969258	        -13.85080317	          0.37367037	         74.53225654	         -2.08444772	
          2.00000000	        -44.48608647	          9.40652454	        -18.17745992	         -2.71986135	         60.08734344	        -13.86859409	          0.33991457	         74.87435050	         -2.13563060	
          2.01000000	        -44.47565085	          9.46446854	        -17.94756809	         -2.68416177	         60.38411139	        -13.88440138	          0.31235922	         75.21531679	         -2.18554725	
          2.02000000	        -44.46412367	          9.52126927	        -17.71615267	         -2.64864448	         60.67998083	        -13.89835553	          0.29115655	         75.55462179	         -2.23377009	
          2.03000000	        -44.45177685	          9.57668294	        -17.48359749	         -2.61349689	         60.97488765	        -13.91057010	          0.27643766	         75.89174827	         -2.27981045	
          2.04000000	        -44.43888858	          9.63039799	        -17.25031189	         -2.57895219	         61.26872186	        -13.92114471	          0.26831579	         76.22619763	         -2.32313768	
          2.05000000	        -44.42574246	          9.68205204	        -17.01673077	         -2.54527832	         61.56133356	        -13.93016995	          0.26688899	         76.55748937	         -2.36320283	
          2.06000000	        -44.41262612	          9.73125417	        -16.78331351	         -2.51276325	         61.85254171	        -13.93773327	          0.27224145	         76.88515876	         -2.39946468	
          2.07000000	        -44.39982899	          9.77761036	        -16.55054070	         -2.48169802	         62.14214520	        -13.94392502	          0.28444286	         77.20875370	         -2.43141597	
          2.08000000	        -44.38763904	          9.82074968	        -16.31890805	         -2.45235915	         62.42993551	        -13.94884370	          0.30354544	         77.52783173	         -2.45860789	
          2.09000000	        -44.37633841	          9.86034919	        -16.08891727	         -2.42499165	         62.71571028	        -13.95259985	          0.32957881	         77.84195778	         -2.48067122	
          2.10000000	        -44.36619831	          9.89615558	        -15.86106464	         -2.39979416	         62.99928689	        -13.95531835	          0.36254337	         78.15070321	         -2.49733296	
          2.11000000	        -44.35747369	          9.92800222	        -15.63582831	         -2.37690699	         63.28051487	        -13.95713908	          0.40240337	         78.45364621	         -2.50842808	
          2.12000000	        -44.35039843	          9.95582059	        -15.41365601	         -2.35640377	         63.55928609	        -13.95821616	          0.44908095	         78.75037350	         -2.51390614	
          2.13000000	        -44.34518150	          9.97964595	        -15.19495476	         -2.33828718	         63.83554181	        -13.95871621	          0.50245268	         79.04048314	         -2.51383304	
          2.14000000	        -44.34200458	          9.99961695	        -14.98008374	         -2.32248858	         64.10927593	        -13.95881594	          0.56234963	         79.32358828	         -2.50838859	
          2.15000000	        -44.34102129	         10.01596969	        -14.76935111	         -2.30887168	         64.38053397	        -13.95869934	          0.62856130	         79.59932155	         -2.49786048	
          2.16000000	        -44.34235787	         10.02902677	        -14.56301445	         -2.29723959	         64.64940811	        -13.95855458	          0.70084344	         79.86734031	         -2.48263544	
          2.17000000	        -44.34611480	         10.03918189	        -14.36128426	         -2.28734508	         64.91602859	        -13.95857060	          0.77892883	         80.12733262	         -2.46318823	
